<svg width="25" height="25" viewBox="0 0 25 25" fill="none" xmlns="http://www.w3.org/2000/svg">
<path d="M12.9687 6.11077C9.56386 6.08106 6.79199 8.80497 6.76227 12.2098C6.73256 15.6147 9.45647 18.3866 12.8613 18.4163C16.2662 18.446 19.0381 15.7221 19.0678 12.3172C19.0975 8.91236 16.3736 6.14048 12.9687 6.11077ZM12.8801 16.2624C10.6782 16.2432 8.89697 14.4306 8.91619 12.2286C8.9354 10.0267 10.748 8.24547 12.9499 8.26469C15.1518 8.28391 16.9331 10.0965 16.9139 12.2984C16.8947 14.5003 15.0821 16.2816 12.8801 16.2624ZM19.3882 4.48073C18.5932 4.47379 17.9457 5.11016 17.9387 5.90513C17.9318 6.7001 18.5681 7.34768 19.3631 7.35462C20.1581 7.36156 20.8056 6.72818 20.8126 5.93021C20.8145 5.74145 20.7791 5.55416 20.7085 5.37909C20.6379 5.20401 20.5334 5.04459 20.4011 4.90994C20.2688 4.7753 20.1112 4.66808 19.9374 4.59443C19.7636 4.52078 19.577 4.48214 19.3882 4.48073ZM24.9086 12.3682C24.923 10.7123 24.9524 9.07146 24.8738 7.41771C24.7975 5.49697 24.3744 3.78922 22.9827 2.37302C21.5881 0.953792 19.8909 0.503965 17.9718 0.394214C16.3167 0.286766 14.6756 0.287445 13.0227 0.27302C11.3667 0.258569 9.72593 0.22925 8.07218 0.307821C6.15145 0.384063 4.44369 0.807176 3.02749 2.19887C1.60827 3.59354 1.15844 5.29068 1.04869 7.20979C0.94124 8.86492 0.94192 10.506 0.927495 12.1589C0.91307 13.8119 0.883724 15.4557 0.962295 17.1094C1.03854 19.0302 1.46165 20.7379 2.85334 22.1541C4.24801 23.5733 5.94515 24.0232 7.86427 24.1329C9.51939 24.2404 11.1605 24.2397 12.8134 24.2541C14.4693 24.2686 16.1101 24.2979 17.7639 24.2193C19.6846 24.1431 21.3924 23.7199 22.8086 22.3283C24.2278 20.9336 24.6776 19.2364 24.7874 17.3173C24.8978 15.6652 24.8941 14.0241 24.9086 12.3682ZM22.2069 19.4189C21.9832 19.963 21.7156 20.3686 21.289 20.7849C20.8623 21.2042 20.455 21.4647 19.9071 21.6789C18.3237 22.2921 14.5781 22.1184 12.8292 22.1032C11.0802 22.0879 7.32915 22.1962 5.75665 21.5584C5.21258 21.3347 4.8069 21.0671 4.39061 20.6405C3.97132 20.2138 3.71086 19.8065 3.49664 19.2586C2.88646 17.6722 3.06015 13.9266 3.07541 12.1777C3.09068 10.4287 2.98241 6.67765 3.62015 5.10515C3.84391 4.56108 4.11146 4.1554 4.53811 3.73911C4.96476 3.32282 5.37207 3.05936 5.91996 2.84514C7.50335 2.23493 11.252 2.40865 13.0009 2.42391C14.7498 2.43917 18.5009 2.3309 20.0734 2.96865C20.6175 3.19241 21.0232 3.45996 21.4395 3.88661C21.8588 4.31328 22.1192 4.72057 22.3334 5.26846C22.9436 6.85185 22.7699 10.6005 22.7547 12.3494C22.7394 14.0983 22.8477 17.8464 22.2069 19.4189Z" fill="#E61F5A"/>
</svg>
