<svg width="26" height="25" viewBox="0 0 26 25" fill="none" xmlns="http://www.w3.org/2000/svg">
<path d="M24.0596 0.976084L1.98047 0.783402C1.44949 0.778768 1.01676 1.20401 1.01213 1.73499L0.819448 23.8141C0.814815 24.3451 1.24005 24.7779 1.77103 24.7825L23.8502 24.9752C24.3812 24.9798 24.8139 24.5546 24.8185 24.0236L25.0112 1.94442C25.0159 1.41344 24.5906 0.980718 24.0596 0.976084ZM21.2266 7.95663L19.3097 7.9399C17.8067 7.92678 17.5095 8.63822 17.5004 9.68817L17.4802 12.0011L21.068 12.0324L20.5685 15.6492L17.4486 15.6219L17.3674 24.9186L13.6266 24.8859L13.7077 15.5923L10.5788 15.565L10.6104 11.9411L13.7393 11.9684L13.7626 9.29854C13.7897 6.19966 15.6973 4.52725 18.4632 4.55138C19.7892 4.56295 20.9253 4.67187 21.2579 4.71978L21.2296 7.95665L21.2266 7.95663Z" fill="#335BF5"/>
</svg>
