<svg width="25" height="18" viewBox="0 0 25 18" fill="none" xmlns="http://www.w3.org/2000/svg">
<path d="M24.4332 3.06325C24.3015 2.52912 24.0386 2.04087 23.6708 1.64737C23.3031 1.25387 22.8434 0.968923 22.3378 0.821049C20.476 0.273582 12.9757 0.208128 12.9757 0.208128C12.9757 0.208128 5.4754 0.142674 3.60425 0.657563C3.09617 0.796591 2.6316 1.07347 2.25705 1.46049C1.88251 1.84751 1.61111 2.3311 1.47004 2.86285C1.10405 4.86142 0.917197 6.89153 0.911929 8.92648C0.881682 10.9612 1.03308 12.9943 1.36413 14.9989C1.4959 15.5331 1.75881 16.0213 2.12655 16.4148C2.49429 16.8083 2.95395 17.0932 3.45953 17.2411C5.3214 17.7886 12.8217 17.854 12.8217 17.854C12.8217 17.854 20.322 17.9195 22.1931 17.4046C22.7012 17.2656 23.1658 16.9887 23.5403 16.6017C23.9149 16.2147 24.1863 15.7311 24.3273 15.1993C24.6933 13.2007 24.8802 11.1706 24.8854 9.13569C24.9157 7.10096 24.7643 5.0679 24.4332 3.06325ZM10.4683 12.7914L10.5343 5.2289L16.7259 9.06448L10.4683 12.7914Z" fill="#E42F08"/>
</svg>
