<svg width="25" height="21" viewBox="0 0 25 21" fill="none" xmlns="http://www.w3.org/2000/svg">
<path d="M24.978 3.21769C24.0931 3.59592 23.1313 3.86529 22.1421 3.96484C23.1735 3.35526 23.9503 2.38477 24.3269 1.23546C23.3591 1.80825 22.3008 2.20659 21.1991 2.4128C20.7438 1.91009 20.1913 1.50796 19.576 1.23145C18.9608 0.95494 18.296 0.809988 17.6231 0.805624C14.9005 0.781865 12.6914 3.00228 12.6674 5.75052C12.664 6.13644 12.7067 6.52277 12.7784 6.89473C8.70361 6.6428 5.08498 4.63468 2.6942 1.58759C2.2471 2.34716 2.0087 3.21438 2.00383 4.09903C1.98872 5.82984 2.8426 7.36356 4.15716 8.27266C3.37812 8.23471 2.61896 8.0107 1.94142 7.61884L1.94088 7.68024C1.91973 10.104 3.59049 12.1272 5.83655 12.6088C5.4131 12.7165 4.97799 12.7697 4.54149 12.7671C4.22169 12.7643 3.91946 12.7295 3.61445 12.683C4.21951 14.6648 6.01916 16.1161 8.17665 16.1818C6.47665 17.509 4.35508 18.2799 2.05889 18.2599C1.6469 18.2563 1.26673 18.2383 0.872432 18.1881C3.03812 19.6251 5.61527 20.4663 8.39836 20.4906C17.4333 20.5694 22.4435 13.0169 22.501 6.42404C22.5029 6.20769 22.5048 5.99134 22.4923 5.77486C23.455 5.07276 24.301 4.20005 24.978 3.21769Z" fill="#21A6DF"/>
</svg>
