<svg width="49" height="45" viewBox="0 0 49 45" fill="none" xmlns="http://www.w3.org/2000/svg">
<g clip-path="url(#clip0_993_496)">
<path d="M24.656 21.2743C28.96 21.3119 32.3381 17.8459 32.3756 13.5563C32.413 9.2667 28.9351 5.89975 24.6311 5.86218C20.3271 5.82462 16.949 9.29064 16.9129 13.4214C16.8755 17.7109 20.352 21.2368 24.656 21.2743ZM24.6034 9.03966C24.7628 9.04105 24.7628 9.04105 24.6034 9.03966C27.1539 9.06192 29.2082 11.1454 29.186 13.6873C29.1638 16.2293 27.0749 18.1177 24.5243 18.0955C21.9738 18.0732 20.0789 15.9912 20.0997 13.6081C20.1219 11.0661 22.2122 9.0188 24.6034 9.03966Z" fill="#0D5C63"/>
<path d="M48.2566 20.5267C45.2514 17.7994 41.2787 16.3348 37.1327 16.4575L35.8574 16.4464C35.5275 17.7146 35.0396 18.8225 34.3936 19.7702C35.3515 19.6197 36.1485 19.6266 37.105 19.635C40.1351 19.5025 43.1556 20.4822 45.5314 22.2507L45.4316 33.6896L48.6198 33.7174L48.7307 21.0075L48.2566 20.5267Z" fill="#0D5C63"/>
<path d="M33.5553 6.25731C34.3689 4.35778 36.609 3.42401 38.6744 4.23646C40.5803 5.04753 41.5174 7.28011 40.7023 9.33851C40.0522 10.7628 38.6092 11.7035 37.1745 11.691C36.8557 11.6882 36.3775 11.6841 36.06 11.5224C36.2125 12.3182 36.2056 13.1125 36.2 13.748L36.1917 14.7013C36.5105 14.7041 36.828 14.8657 37.1468 14.8685C41.132 14.9033 44.3479 11.7536 44.3812 7.94064C44.4158 3.9688 41.2554 0.763497 37.4296 0.730109C34.8791 0.707851 32.6362 1.95937 31.3416 4.17247C32.1345 4.65605 32.9259 5.2985 33.5553 6.25731Z" fill="#0D5C63"/>
<path d="M15.2638 19.7621C14.6345 18.8033 14.166 17.687 13.8583 16.4132L12.583 16.4021C8.43977 16.2071 4.44208 17.6021 1.39113 20.1177L0.90875 20.5901L0.797832 33.3001L3.986 33.3279L4.08583 21.889C6.65161 20.1636 9.52929 19.2354 12.5567 19.4207C13.5131 19.4291 14.4682 19.5963 15.2638 19.7621Z" fill="#0D5C63"/>
<path d="M12.5996 14.4957C12.9184 14.4984 13.2373 14.5012 13.5575 14.3451L13.5658 13.3919C13.5727 12.5975 13.5796 11.8032 13.7446 11.169C13.4244 11.3251 12.9462 11.321 12.6274 11.3182C10.555 11.3001 8.8168 9.53718 8.83483 7.47182C8.85285 5.40646 10.6216 3.67415 12.6939 3.69224C14.288 3.70615 15.7143 4.67191 16.3395 6.10734C16.9841 5.31854 17.9474 4.53251 18.75 3.90397C16.7068 0.549537 12.4125 -0.600141 9.04692 1.43601C5.68132 3.47215 4.52803 7.75201 6.57122 11.1064C7.82846 13.1829 10.0491 14.4734 12.5996 14.4957Z" fill="#0D5C63"/>
<path d="M37.6524 29.9673L37.3378 29.4879C34.1801 25.9648 29.7347 23.8605 24.9511 23.9777C20.1702 23.7771 15.5293 25.8021 12.3107 29.2695L11.9877 29.7433L11.8823 41.8177C11.8698 43.2476 12.9746 44.5283 14.5687 44.5422L34.973 44.7203C36.4076 44.7328 37.694 43.473 37.7065 42.0431L37.8119 29.9687L37.6524 29.9673ZM34.3631 41.5373L15.0746 41.3689L15.1662 30.8833C17.7389 28.3635 21.2569 27.1232 24.9233 27.1552C28.4317 27.0269 31.9262 28.4874 34.4546 31.0516L34.3631 41.5373Z" fill="#0D5C63"/>
</g>
<defs>
<clipPath id="clip0_993_496">
<rect width="48" height="44.2105" fill="white" transform="translate(0.998047 0.264648) rotate(0.5)"/>
</clipPath>
</defs>
</svg>
