<svg width="49" height="29" viewBox="0 0 49 29" fill="none" xmlns="http://www.w3.org/2000/svg">
<g clip-path="url(#clip0_993_510)">
<path d="M43.9606 13.261C43.385 13.2602 42.814 13.365 42.275 13.5705L36.5766 8.73588C36.7224 8.21552 36.8277 7.6753 36.8327 7.10496C36.8621 3.72679 34.2193 0.988313 30.9016 0.95936C27.584 0.930407 24.8937 3.62235 24.8642 7.00051C24.8558 7.9657 25.0873 8.86718 25.468 9.67976L18.4316 17.9986C18.1534 17.9431 17.8709 17.912 17.5874 17.9059C17.1589 17.9022 16.7538 17.9718 16.3603 18.0756L10.2798 11.7751C10.3909 11.3788 10.4663 10.9675 10.4702 10.5312C10.4937 7.83062 8.37752 5.63787 5.72531 5.61472C3.0731 5.59158 0.918955 7.74706 0.895387 10.4476C0.871819 13.1482 2.98802 15.341 5.64023 15.3641C6.0687 15.3679 6.47387 15.2983 6.86737 15.1945L12.9479 21.4949C12.8293 21.8989 12.7652 22.3173 12.7575 22.7388C12.7339 25.4394 14.8501 27.6322 17.5023 27.6553C20.1545 27.6785 22.3087 25.523 22.3323 22.8224C22.3373 22.2448 22.2271 21.7002 22.0521 21.1844L29.0981 12.8559C29.6401 13.0215 30.2016 13.1409 30.7953 13.1461C31.74 13.149 32.6718 12.9223 33.5133 12.4849L39.214 17.3195C39.1667 17.5751 39.1388 17.834 39.1306 18.0939C39.1071 20.7945 41.2233 22.9873 43.8755 23.0104C46.5277 23.0336 48.6818 20.8781 48.7054 18.1775C48.729 15.4769 46.6128 13.2842 43.9606 13.261Z" fill="#0D5C63"/>
</g>
<defs>
<clipPath id="clip0_993_510">
<rect width="48" height="27.0968" fill="white" transform="translate(0.918945 0.603027) rotate(0.5)"/>
</clipPath>
</defs>
</svg>
