<svg width="37" height="49" viewBox="0 0 37 49" fill="none" xmlns="http://www.w3.org/2000/svg">
<g clip-path="url(#clip0_993_514)">
<path d="M9.76184 34.0932C8.95791 33.2715 9.37869 33.5048 7.42709 32.9618C6.54161 32.715 5.76538 32.2489 5.06461 31.6924L0.739227 42.0838C0.320698 43.0899 1.07643 44.1934 2.16128 44.1616L7.08047 44.0161L10.4314 47.6342C11.1712 48.432 12.4837 48.1969 12.9022 47.1908L17.8644 35.2693C16.8478 35.8267 15.7221 36.1487 14.5611 36.1386C12.7412 36.1227 11.0376 35.3962 9.76184 34.0932ZM36.3539 42.3946L32.2105 31.9293C31.5001 32.4744 30.7159 32.926 29.8262 33.1573C27.8552 33.6689 28.2884 33.442 27.4721 34.2477C26.1738 35.5283 24.4569 36.2249 22.6369 36.2091C21.4759 36.1989 20.3561 35.8563 19.3493 35.2822L24.1027 47.2885C24.5036 48.3017 25.8127 48.5597 26.5653 47.775L29.9799 44.2159L34.8958 44.4473C35.9799 44.498 36.7548 43.4069 36.3539 42.3946ZM25.2619 32.1068C26.7007 30.6615 26.8629 30.7885 28.8986 30.2504C30.1981 29.9064 31.2207 28.8793 31.5794 27.5568C32.3008 24.9005 32.1169 25.2204 34.0388 23.289C34.9964 22.327 35.3793 20.9156 35.0437 19.587C34.3697 16.9204 34.3655 17.2916 35.0869 14.6344C35.4456 13.3118 35.0875 11.894 34.1468 10.9154C32.2589 8.95074 32.4372 9.27294 31.7623 6.60538C31.4267 5.27678 30.4221 4.23204 29.1289 3.86542C26.5331 3.12931 26.845 3.3186 24.9553 1.35297C24.0146 0.374412 22.6339 -0.0173392 21.3344 0.326647C18.7271 1.01642 19.0901 1.02053 16.4906 0.284375C15.1973 -0.0822367 13.81 0.28442 12.8523 1.24735C10.9305 3.17878 11.2457 2.9959 8.63647 3.68659C7.33702 4.03058 6.31442 5.05763 5.95566 6.38017C5.23526 9.03555 5.41819 8.71651 3.49633 10.6479C2.53869 11.6099 2.1549 13.0213 2.49145 14.3499C3.16542 17.0147 3.16959 16.6434 2.44824 19.3016C2.08948 20.6242 2.44765 22.042 3.38834 23.0215C5.2762 24.9862 5.09795 24.6631 5.77282 27.3316C6.10844 28.6602 7.11296 29.7049 8.40621 30.0715C10.4899 30.6616 10.6466 30.573 12.0091 31.9912C13.2328 33.2647 15.1544 33.5074 16.6465 32.5773C17.2432 32.204 17.9334 32.0091 18.6362 32.0152C19.3391 32.0214 20.0257 32.2283 20.6158 32.6119C22.0906 33.5679 24.0161 33.3588 25.2619 32.1068ZM9.96495 16.594C10.0083 11.6226 13.9858 7.62686 18.8482 7.66929C23.7107 7.71173 27.6178 11.7763 27.5744 16.7477C27.531 21.719 23.5536 25.7148 18.6911 25.6724C13.8286 25.6299 9.92157 21.5654 9.96495 16.594Z" fill="#0D5C63"/>
</g>
<defs>
<clipPath id="clip0_993_514">
<rect width="35.84" height="48" fill="white" transform="translate(0.995117 0.0205078) rotate(0.5)"/>
</clipPath>
</defs>
</svg>
