<svg width="49" height="42" viewBox="0 0 49 42" fill="none" xmlns="http://www.w3.org/2000/svg">
<g clip-path="url(#clip0_993_518)">
<path d="M43.4615 9.22103L38.3921 9.17679L38.4363 4.10737C38.4442 3.21104 38.0956 2.34831 37.4673 1.70898C36.8391 1.06964 35.9826 0.706077 35.0862 0.698255L14.8085 0.521294C13.9122 0.513472 13.0495 0.862036 12.4101 1.49031C11.7708 2.11858 11.4072 2.97509 11.3994 3.87142L11.3552 8.94085L6.28573 8.89661C4.94124 8.88487 3.64715 9.40772 2.68815 10.3501C1.72915 11.2925 1.1838 12.5773 1.17207 13.9218L0.965611 37.5791C0.957789 38.4754 1.30635 39.3382 1.93462 39.9775C2.56289 40.6168 3.4194 40.9804 4.31574 40.9882L44.8712 41.3422C45.7675 41.35 46.6302 41.0014 47.2695 40.3731C47.9089 39.7449 48.2724 38.8884 48.2803 37.992L48.4867 14.3347C48.4984 12.9902 47.9756 11.6961 47.0332 10.7371C46.0908 9.77812 44.806 9.23277 43.4615 9.22103ZM14.779 3.90091L35.0567 4.07787L35.0125 9.1473L14.7348 8.97034L14.779 3.90091ZM44.9006 37.9625L4.34523 37.6086L4.47795 22.4003L17.9964 22.5183L17.9227 30.9673L31.4412 31.0853L31.5149 22.6363L45.0334 22.7543L44.9006 37.9625ZM21.376 22.5478L28.1353 22.6068L28.091 27.6762L21.3318 27.6172L21.376 22.5478ZM4.50744 19.0207L4.55168 13.9513C4.55559 13.5031 4.73738 13.0749 5.05704 12.7607C5.37671 12.4466 5.80807 12.2723 6.25624 12.2762L43.432 12.6007C43.8802 12.6046 44.3085 12.7863 44.6226 13.106C44.9367 13.4257 45.111 13.857 45.1071 14.3052L45.0629 19.3746L4.50744 19.0207Z" fill="#0D5C63"/>
</g>
<defs>
<clipPath id="clip0_993_518">
<rect width="48" height="40.7089" fill="white" transform="translate(0.949219 0.324219) rotate(0.5)"/>
</clipPath>
</defs>
</svg>
