<svg width="50" height="42" viewBox="0 0 50 42" fill="none" xmlns="http://www.w3.org/2000/svg">
<g clip-path="url(#clip0_993_476)">
<path d="M43.6324 9.74349L38.563 9.69925L38.6072 4.62983C38.6151 3.7335 38.2665 2.87077 37.6382 2.23144C37.01 1.59211 36.1534 1.22854 35.2571 1.22072L14.9794 1.04376C14.0831 1.03593 13.2204 1.3845 12.581 2.01277C11.9417 2.64104 11.5781 3.49755 11.5703 4.39388L11.5261 9.46331L6.45663 9.41907C5.11214 9.40733 3.81805 9.93018 2.85905 10.8726C1.90005 11.815 1.3547 13.0998 1.34296 14.4443L1.13651 38.1016C1.12869 38.9979 1.47725 39.8606 2.10552 40.5C2.73379 41.1393 3.5903 41.5029 4.48663 41.5107L45.042 41.8646C45.9384 41.8724 46.8011 41.5239 47.4404 40.8956C48.0798 40.2673 48.4433 39.4108 48.4512 38.5145L48.6576 14.8572C48.6693 13.5127 48.1465 12.2186 47.2041 11.2596C46.2617 10.3006 44.9769 9.75523 43.6324 9.74349ZM14.9499 4.42337L35.2276 4.60033L35.1834 9.66976L14.9057 9.4928L14.9499 4.42337ZM45.0715 38.485L4.51613 38.1311L4.64885 22.9228L18.1673 23.0408L18.0936 31.4898L31.6121 31.6078L31.6858 23.1587L45.2043 23.2767L45.0715 38.485ZM21.5469 23.0703L28.3062 23.1292L28.2619 28.1987L21.5027 28.1397L21.5469 23.0703ZM4.67834 19.5432L4.72258 14.4737C4.72649 14.0256 4.90828 13.5973 5.22794 13.2832C5.54761 12.9691 5.97897 12.7948 6.42714 12.7987L43.6029 13.1231C44.0511 13.127 44.4794 13.3088 44.7935 13.6285C45.1076 13.9481 45.2819 14.3795 45.278 14.8277L45.2338 19.8971L4.67834 19.5432Z" fill="#0D5C63"/>
</g>
<defs>
<clipPath id="clip0_993_476">
<rect width="48" height="40.7089" fill="white" transform="translate(1.12012 0.84668) rotate(0.5)"/>
</clipPath>
</defs>
</svg>
