<svg width="50" height="49" viewBox="0 0 50 49" fill="none" xmlns="http://www.w3.org/2000/svg">
<g clip-path="url(#clip0_993_480)">
<path opacity="0.15" d="M44.6703 15.1015L5.3718 14.7586C5.3538 14.7584 5.34169 14.7702 5.34154 14.7879L5.29437 20.193C5.26344 23.7371 8.17824 26.6372 11.7961 26.6687C14.238 26.69 16.3793 25.4048 17.5302 23.4767C17.7068 23.1759 18.0384 22.9892 18.3924 22.9923C18.7464 22.9953 19.0687 23.1878 19.2461 23.4917C20.3571 25.4395 22.4757 26.7619 24.9176 26.7832C27.3655 26.8046 29.5128 25.5135 30.6518 23.5793C30.8283 23.2845 31.1479 23.1036 31.4899 23.1066L31.5259 23.1069C31.8739 23.1099 32.1843 23.2964 32.3557 23.5942C33.4667 25.548 35.5912 26.8764 38.0391 26.8978C41.6569 26.9293 44.6219 24.0806 44.6528 20.5365L44.7 15.1314C44.7002 15.1136 44.6883 15.1017 44.6703 15.1015Z" fill="#0D5C63"/>
<path d="M47.257 10.8624L47.3233 3.27038C47.3324 2.22137 46.4819 1.36638 45.4199 1.35711L4.86149 1.00317C3.79954 0.993899 2.93417 1.83392 2.92502 2.88292L2.85876 10.4749C1.85629 10.5254 1.05113 11.3423 1.04234 12.3498L0.974219 20.1551C0.957858 21.5896 1.23951 23.0122 1.80177 24.335C2.05449 24.9418 2.36751 25.5135 2.72279 26.0559L2.54435 46.5027C2.53525 47.5458 3.38577 48.4067 4.44773 48.416L45.0062 48.7699C46.0681 48.7792 46.9335 47.9392 46.9426 46.8902L47.1211 26.4434C47.4914 25.9059 47.8098 25.3352 48.072 24.7388C48.6535 23.4221 48.9597 22.0201 48.9724 20.574L49.0405 12.7687C49.0493 11.7611 48.2585 10.9304 47.257 10.8624ZM7.22416 5.29126L42.9828 5.60332L42.9373 10.8187L7.17865 10.5067L7.22416 5.29126ZM28.604 44.3652L20.9243 44.2982L20.9781 38.1286L28.6578 38.1957L28.604 44.3652ZM42.6674 44.488L32.4438 44.3988L32.5142 36.3327C32.5234 35.2836 31.6728 34.4287 30.6108 34.4194L19.0913 34.3189C18.0293 34.3096 17.164 35.1496 17.1548 36.1986L17.0844 44.2647L6.88482 44.1757L7.01009 29.8215C7.18336 29.906 7.36263 29.9905 7.548 30.0633C8.88109 30.632 10.3006 30.923 11.7645 30.9358C13.2285 30.9485 14.6469 30.6823 15.9957 30.137C16.8266 29.8005 17.6104 29.3687 18.329 28.8475C18.3411 28.8416 18.3531 28.8417 18.365 28.8478C19.0766 29.3837 19.8527 29.8305 20.6755 30.1778C22.0086 30.7466 23.4281 31.0376 24.892 31.0503C26.356 31.0631 27.7744 30.7969 29.1232 30.2515C29.9541 29.915 30.7379 29.4833 31.4565 28.962C31.4686 28.9562 31.4806 28.9563 31.4925 28.9623C32.2041 29.4983 32.9801 29.9451 33.803 30.2924C35.1361 30.8612 36.5556 31.1521 38.0195 31.1649C39.4835 31.1777 40.9018 30.9115 42.2507 30.3661C42.4313 30.2906 42.612 30.2151 42.7927 30.1337L42.6674 44.488ZM44.6525 20.5363C44.6216 24.0804 41.6566 26.9291 38.0388 26.8976C35.5909 26.8762 33.4664 25.5478 32.3554 23.594C32.184 23.2962 31.8736 23.1097 31.5256 23.1067L31.4896 23.1064C31.1476 23.1034 30.828 23.2843 30.6514 23.5792C30.0672 24.5658 29.2288 25.3819 28.2217 25.9446C27.2145 26.5074 26.0744 26.7967 24.9173 26.7831C22.4754 26.7618 20.3568 25.4393 19.2458 23.4915C19.0684 23.1876 18.7461 22.9952 18.3921 22.9921C18.0381 22.989 17.7065 23.1758 17.5299 23.4765C16.9423 24.4593 16.1029 25.2717 15.0963 25.8321C14.0897 26.3925 12.9513 26.681 11.7958 26.6686C8.17792 26.637 5.26312 23.7369 5.29405 20.1928L5.34122 14.7878C5.34138 14.77 5.35348 14.7582 5.37148 14.7584L44.6699 15.1013C44.6879 15.1015 44.6998 15.1135 44.6997 15.1312L44.6525 20.5363Z" fill="#0D5C63"/>
</g>
<defs>
<clipPath id="clip0_993_480">
<rect width="48" height="47.4146" fill="white" transform="translate(1.1416 0.970703) rotate(0.5)"/>
</clipPath>
</defs>
</svg>
