<svg width="50" height="39" viewBox="0 0 50 39" fill="none" xmlns="http://www.w3.org/2000/svg">
<g clip-path="url(#clip0_993_486)">
<path d="M30.1494 8.98145L42.1468 9.08615L42.1168 12.5313L30.1193 12.4266L30.1494 8.98145Z" fill="white"/>
<path d="M30.0742 17.5947L42.0716 17.6994L42.0416 21.1446L30.0442 21.0399L30.0742 17.5947Z" fill="white"/>
<path d="M29.999 26.2075L41.9964 26.3122L41.9664 29.7574L29.969 29.6527L29.999 26.2075Z" fill="white"/>
<path d="M45.6497 0.503631L4.51572 0.14466C3.60687 0.137641 2.73235 0.493304 2.08407 1.1336C1.43578 1.77389 1.0667 2.6465 1.05782 3.55993L0.787234 34.5666C0.78017 35.4801 1.13396 36.359 1.77097 37.0105C2.40798 37.662 3.27617 38.0329 4.185 38.0417L45.319 38.4007C46.2277 38.4072 47.1019 38.0514 47.7501 37.4112C48.3983 36.771 48.7675 35.8987 48.7768 34.9854L49.0474 3.97873C49.0545 3.06528 48.7007 2.18636 48.0637 1.53485C47.4267 0.883346 46.5585 0.512474 45.6497 0.503631ZM4.48565 3.58985L23.3387 3.75438L23.0681 34.7611L4.21506 34.5965L4.48565 3.58985ZM26.496 34.791L26.7665 3.78429L45.6196 3.94882L45.3524 34.9555L26.496 34.791Z" fill="white"/>
</g>
<defs>
<clipPath id="clip0_993_486">
<rect width="48" height="37.92" fill="white" transform="translate(1.08398 0.103516) rotate(0.5)"/>
</clipPath>
</defs>
</svg>
