<svg width="31" height="31" viewBox="0 0 31 31" fill="none" xmlns="http://www.w3.org/2000/svg">
<path fill-rule="evenodd" clip-rule="evenodd" d="M17.8352 8.61719C17.3686 8.93469 16.8435 9.15609 16.2904 9.26846C15.7373 9.38082 15.1674 9.38191 14.6139 9.27166C14.0604 9.1614 13.5344 8.94201 13.0667 8.62629C12.5989 8.31057 12.1986 7.90485 11.8893 7.43279C11.58 6.96073 11.3678 6.43179 11.2652 5.87685C11.1625 5.3219 11.1713 4.75206 11.2912 4.20058C11.4111 3.6491 11.6397 3.12702 11.9635 2.66482C12.2874 2.20261 12.7 1.80953 13.1774 1.50852C14.1201 0.897624 15.2663 0.684771 16.3654 0.916489C17.4646 1.14821 18.4273 1.80565 19.0431 2.7451C19.659 3.68456 19.8778 4.82961 19.6519 5.92996C19.4259 7.03031 18.7735 7.99646 17.8373 8.61721L17.8352 8.61719ZM16.7021 3.30735C16.4722 3.13885 16.2106 3.01835 15.9331 2.95302C15.6557 2.88768 15.3678 2.87885 15.0869 2.92705C14.8059 2.97525 14.5375 3.0795 14.2976 3.23358C14.0578 3.38766 13.8514 3.58842 13.6907 3.82393C13.5301 4.05943 13.4184 4.32485 13.3625 4.60439C13.3065 4.88392 13.3074 5.17186 13.365 5.45106C13.4227 5.73025 13.5359 5.995 13.6979 6.22953C13.86 6.46406 14.0676 6.66358 14.3084 6.81622C14.7736 7.10443 15.3321 7.20202 15.8676 7.08868C16.403 6.97534 16.874 6.65979 17.1826 6.20778C17.4911 5.75576 17.6134 5.20213 17.5239 4.66222C17.4343 4.12231 17.14 3.63775 16.7021 3.30947L16.7021 3.30735ZM22.2476 3.4195C22.864 3.01261 23.6031 2.83341 24.3374 2.91274C25.0718 2.99207 25.7555 3.32497 26.2708 3.85412C26.638 4.23081 26.9072 4.69184 27.0547 5.19679C27.2023 5.70174 27.2236 6.23518 27.117 6.75031C27.0103 7.26544 26.7789 7.74654 26.443 8.15139C26.1071 8.55624 25.677 8.87249 25.1904 9.07239C24.606 9.31077 23.9637 9.36929 23.3459 9.24048C22.728 9.11167 22.1626 8.80138 21.7222 8.34935C21.3911 8.01073 21.139 7.60312 20.9839 7.15569C20.8288 6.70826 20.7745 6.23207 20.8249 5.7612C20.8753 5.29033 21.0291 4.83642 21.2755 4.43197C21.5218 4.02751 21.8545 3.6825 22.2497 3.42164L22.2476 3.4195ZM23.2377 6.84952C23.4355 7.04991 23.7047 7.16354 23.9863 7.1654C24.1257 7.16632 24.2639 7.13977 24.3931 7.08728C24.5222 7.03478 24.6398 6.95735 24.739 6.85943C24.8382 6.76151 24.9172 6.645 24.9714 6.51655C25.0256 6.38811 25.0539 6.25025 25.0549 6.11084C25.0558 5.97144 25.0292 5.83321 24.9767 5.70406C24.9242 5.57492 24.8468 5.45737 24.7489 5.35815C24.5528 5.15745 24.2863 5.04082 24.0058 5.0329C23.8657 5.03139 23.7266 5.05768 23.5967 5.11024C23.4668 5.1628 23.3486 5.2406 23.2489 5.33913C23.1493 5.43766 23.0701 5.55497 23.0161 5.68427C22.962 5.81358 22.9341 5.95232 22.934 6.09246C22.9323 6.37546 23.0412 6.64793 23.2377 6.85164L23.2377 6.84952ZM5.10846 25.1328L8.95456 25.1663L8.93593 27.3019L5.08982 27.2683C4.41658 27.2563 3.77555 26.9779 3.30726 26.4941C2.83717 26.0085 2.57718 25.3573 2.58355 24.6815L2.61712 20.8354C2.33111 20.8233 2.05051 20.7534 1.79227 20.6299C1.53402 20.5064 1.30349 20.3318 1.11458 20.1167C0.913663 19.9096 0.756707 19.664 0.653151 19.3947C0.549594 19.1254 0.501575 18.8379 0.511983 18.5495L0.552446 13.9129C0.567574 12.91 0.973297 11.9552 1.68073 11.2494C2.38597 10.5522 3.33506 10.1588 4.32533 10.1611L8.23518 10.1952C7.70232 10.8187 7.29871 11.5419 7.04782 12.3227L4.30668 12.2988C3.87529 12.3074 3.46341 12.4801 3.15492 12.7817C2.85181 13.088 2.68043 13.5006 2.67737 13.9315L2.63598 18.6743L4.76089 18.6929L4.70849 24.6979C4.70306 24.7557 4.70942 24.8141 4.72721 24.8694C4.74499 24.9247 4.77381 24.9758 4.81194 25.0197C4.89678 25.0864 5.00061 25.1245 5.1085 25.1285L5.10846 25.1328ZM20.7412 11.4179C20.3966 11.0638 19.9854 10.7813 19.5312 10.5866C19.0771 10.3919 18.5889 10.2888 18.0948 10.2834L12.825 10.2374C11.8343 10.2367 10.8836 10.6279 10.1804 11.3257C9.47295 12.0315 9.06723 12.9863 9.0521 13.9892L8.99317 20.7422C8.98511 21.322 9.20095 21.8826 9.59579 22.3073C9.78493 22.5221 10.0155 22.6965 10.2737 22.82C10.5319 22.9435 10.8124 23.0135 11.0983 23.0259L11.0552 27.9621C11.0503 28.299 11.1121 28.6336 11.237 28.9465C11.3619 29.2594 11.5475 29.5445 11.7831 29.7854C12.1625 30.1458 12.6428 30.3816 13.1585 30.4605L17.4084 30.4976C18.0067 30.4243 18.5569 30.1325 18.9531 29.6781C19.3494 29.2238 19.5637 28.6391 19.5549 28.0363L19.598 23.098C19.8842 23.0909 20.166 23.0259 20.4263 22.907C20.6867 22.788 20.9202 22.6174 21.1129 22.4057C21.3172 22.2024 21.4783 21.96 21.5866 21.6929C21.6948 21.4258 21.7479 21.1395 21.7427 20.8514L21.8016 14.0984C21.8118 13.1001 21.4313 12.1373 20.7413 11.4158L20.7412 11.4179ZM19.6169 20.9391L17.4919 20.9205L17.43 28.0178C17.427 28.1298 17.3803 28.2361 17.2999 28.3141C17.2633 28.3568 17.2172 28.3902 17.1654 28.4119C17.1135 28.4336 17.0574 28.4429 17.0013 28.439L13.5802 28.4092C13.4692 28.403 13.3645 28.3557 13.2866 28.2764C13.2086 28.1971 13.1631 28.0916 13.1589 27.9805L13.2209 20.8833L11.1172 20.8649L11.177 14.0057C11.1808 13.5743 11.3523 13.1614 11.6546 12.8559C11.9631 12.5543 12.375 12.3815 12.8064 12.3729L18.0761 12.4189C18.398 12.4274 18.7104 12.5297 18.9749 12.7132C19.2394 12.8967 19.4446 13.1535 19.5653 13.452C19.6445 13.6516 19.6824 13.8652 19.6767 14.0798L19.6169 20.9391ZM25.5316 27.4446L21.6855 27.411L21.7041 25.2755L25.5289 25.3088C25.6369 25.3067 25.7414 25.2705 25.8274 25.2052C25.8705 25.1637 25.9044 25.1136 25.9269 25.0582C25.9494 25.0027 25.9598 24.9431 25.9577 24.8833L26.0101 18.8783L28.135 18.8968L28.1764 14.154C28.1809 13.7231 28.0167 13.3076 27.719 12.9961C27.4158 12.6891 27.007 12.5092 26.5758 12.4931L23.8347 12.4692C23.5976 11.6841 23.2066 10.9539 22.6846 10.3213L26.5945 10.3554C27.5848 10.3732 28.5281 10.7808 29.2197 11.4898C29.9147 12.2077 30.3037 13.1695 30.3013 14.1726L30.2609 18.8091C30.2558 19.3892 30.0321 19.9441 29.6332 20.3613C29.2342 20.7808 28.6923 21.0289 28.1162 21.0558L28.0826 24.9019C28.0767 25.5797 27.8054 26.2255 27.3274 26.7016C26.8507 27.1772 26.2049 27.4444 25.5316 27.4446ZM7.02513 2.74688C6.39282 2.74063 5.77305 2.92334 5.24525 3.2716C4.71746 3.61987 4.30568 4.11781 4.06271 4.7016C3.81755 5.28518 3.74962 5.92801 3.86739 6.54994C3.98516 7.17186 4.28342 7.74536 4.72497 8.19889C5.16636 8.65191 5.73278 8.96306 6.35186 9.0926C6.97095 9.22215 7.6146 9.1642 8.20059 8.92617C8.78658 8.68814 9.28832 8.28082 9.6417 7.75626C9.99509 7.23169 10.1841 6.61369 10.1845 5.9812C10.1919 5.13123 9.86333 4.31233 9.26935 3.70575C8.97688 3.40597 8.62806 3.16694 8.24292 3.00238C7.85779 2.83783 7.44393 2.751 7.02513 2.74688ZM6.98782 7.02222C6.84768 7.02128 6.70911 6.99257 6.58013 6.93775C6.45115 6.88293 6.33432 6.80308 6.23639 6.70283C6.13845 6.60257 6.06137 6.4839 6.00958 6.35367C5.9578 6.22344 5.93234 6.08424 5.93469 5.94411C5.93771 5.66191 6.05198 5.39231 6.25268 5.19391C6.45337 4.9955 6.72427 4.88433 7.00648 4.88455C7.28777 4.89196 7.5551 5.0087 7.75172 5.20999C7.94835 5.41128 8.05879 5.68127 8.05961 5.96266C8.0566 6.24485 7.94232 6.51445 7.74163 6.71286C7.54093 6.91127 7.27004 7.02244 6.98782 7.02222Z" fill="#FF7B47"/>
</svg>
