<svg width="33" height="27" viewBox="0 0 33 27" fill="none" xmlns="http://www.w3.org/2000/svg">
<path d="M30.4658 8.30732L28.4409 11.296C29.388 13.2268 29.8413 15.3625 29.7601 17.5116C29.679 19.6606 29.066 21.756 27.9759 23.6099L5.4543 23.4134C4.07988 20.9802 3.5261 18.1689 3.87506 15.3963C4.22401 12.6236 5.45713 10.0372 7.39161 8.02052C9.32608 6.00381 11.8589 4.66413 14.6146 4.2001C17.3704 3.73607 20.2023 4.17238 22.6905 5.44436L25.7141 3.47192C22.6706 1.48264 19.0479 0.571523 15.4255 0.884312C11.803 1.1971 8.39013 2.71572 5.7327 5.19727C3.07528 7.67881 1.32686 10.9799 0.767129 14.5725C0.207398 18.1651 0.86869 21.8416 2.64523 25.0139C2.92451 25.5076 3.32812 25.9196 3.81595 26.2089C4.30377 26.4982 4.85882 26.6549 5.42594 26.6633L27.9313 26.8597C28.504 26.8669 29.0684 26.7228 29.5674 26.4417C30.0664 26.1607 30.4822 25.7528 30.7729 25.2594C32.2927 22.6789 33.0699 19.7287 33.0186 16.7343C32.9673 13.74 32.0895 10.8181 30.4822 8.29122L30.4658 8.30732ZM14.4607 19.2831C14.7599 19.5879 15.1162 19.8307 15.5093 19.9977C15.9024 20.1647 16.3246 20.2526 16.7517 20.2563C17.1787 20.26 17.6024 20.1795 17.9983 20.0194C18.3943 19.8593 18.7548 19.6227 19.0593 19.3232L28.3768 5.60774L14.5008 14.6845C14.196 14.9837 13.9532 15.34 13.7862 15.7331C13.6192 16.1262 13.5313 16.5484 13.5276 16.9755C13.5239 17.4025 13.6044 17.8262 13.7645 18.2221C13.9246 18.6181 14.1612 18.9786 14.4607 19.2831Z" fill="#FF7B47"/>
</svg>
